<svg id="Layer_1" data-name="Layer 1" xmlns="http://www.w3.org/2000/svg" viewBox="0 0 208.32 42.01"><defs><style>.cls-1,.cls-2{fill:#990ae3;}.cls-2{fill-rule:evenodd;}</style></defs><path class="cls-1" d="M164.93,30.6H147.69c.95,3.59,3.9,5.49,7.59,5.49a7.81,7.81,0,0,0,6-2.64l2.35,1.38a2.71,2.71,0,0,1,.24,4.53A14.57,14.57,0,0,1,155.28,42c-8.85,0-14.7-5.9-14.7-14a13.54,13.54,0,0,1,13.65-14c7.33,0,13.32,5,13.43,13.85A2.72,2.72,0,0,1,164.93,30.6Zm-4-5.16A6.31,6.31,0,0,0,154.34,20a6.66,6.66,0,0,0-6.65,5.48Z" transform="translate(0 -0.03)"/><path class="cls-1" d="M69.6,28a14.1,14.1,0,0,1-28.19,0A14.1,14.1,0,0,1,69.6,28Zm-6.85,0c0-4.16-2.79-7.59-7.27-7.59S48.26,23.86,48.26,28s2.79,7.59,7.22,7.59S62.75,32.18,62.75,28Z" transform="translate(0 -0.03)"/><path class="cls-1" d="M110.3,4.46V38.64a2.72,2.72,0,0,1-2.72,2.72h-4V38.25A10.3,10.3,0,0,1,95.07,42c-8.28,0-13-7-13-14s4.74-14,13-14c4.16,0,6.8,1.58,8.54,3.8V7.18a2.71,2.71,0,0,1,2.71-2.72Zm-7,23.56c0-4.11-2.58-7.59-7.17-7.59S88.9,23.91,88.9,28s2.64,7.59,7.22,7.59S103.29,32.13,103.29,28Z" transform="translate(0 -0.03)"/><path class="cls-1" d="M79.17,4.46V38.64a2.71,2.71,0,0,1-2.71,2.72h-4V7.18A2.72,2.72,0,0,1,75.2,4.46Z" transform="translate(0 -0.03)"/><path class="cls-1" d="M177.23,4.46V38.64a2.72,2.72,0,0,1-2.72,2.72h-4V7.18a2.71,2.71,0,0,1,2.71-2.72Z" transform="translate(0 -0.03)"/><path class="cls-1" d="M186.8,4.46V38.64a2.72,2.72,0,0,1-2.72,2.72h-4V7.18a2.72,2.72,0,0,1,2.72-2.72Z" transform="translate(0 -0.03)"/><path class="cls-1" d="M133.47,32.18l3.06,1.74a2.73,2.73,0,0,1,.47,4.39A14.12,14.12,0,0,1,127.3,42a14,14,0,1,1,0-28,14.07,14.07,0,0,1,12,6.48l-3.84,2.22a2.7,2.7,0,0,1-3.21-.36,6.92,6.92,0,0,0-5-1.91c-4.48,0-7.27,3.43-7.27,7.59s2.79,7.59,7.27,7.59A6.87,6.87,0,0,0,133.47,32.18Z" transform="translate(0 -0.03)"/><path class="cls-1" d="M38.53,24.65v14a2.72,2.72,0,0,1-2.72,2.72h-4V26c0-3.32-1.37-5.54-4.48-5.54S22.61,23,22.61,26V38.64a2.71,2.71,0,0,1-2.71,2.72h-4V26c0-3.32-1.37-5.54-4.48-5.54S6.69,23,6.69,26V38.64A2.71,2.71,0,0,1,4,41.36H0v-24a2.72,2.72,0,0,1,2.72-2.72h4v2.85A8.08,8.08,0,0,1,13.76,14a7.86,7.86,0,0,1,7.38,4.22A9.44,9.44,0,0,1,29.2,14C35.37,14,38.53,19,38.53,24.65Z" transform="translate(0 -0.03)"/><path class="cls-2" d="M194.34,1.79a2.77,2.77,0,0,0-2.82,2.69,2.73,2.73,0,0,0,2.82,2.65,2.77,2.77,0,0,0,2-.84l2.23,0a4.78,4.78,0,0,1-4.24,2.56,4.52,4.52,0,0,1-4.67-4.41A4.53,4.53,0,0,1,194.34,0a4.78,4.78,0,0,1,4.24,2.56l-2.23,0a2.86,2.86,0,0,0-2-.84" transform="translate(0 -0.03)"/><path class="cls-2" d="M203.66,1.79a2.76,2.76,0,0,0-2.81,2.69,2.73,2.73,0,0,0,2.81,2.65,2.82,2.82,0,0,0,2.44-1.39h-2.4V4.27h4.62v.21a4.67,4.67,0,0,1-9.32,0A4.55,4.55,0,0,1,203.66,0a4.71,4.71,0,0,1,4.24,2.6h-2.22a2.79,2.79,0,0,0-2-.84" transform="translate(0 -0.03)"/></svg>